/* XPM */
static char * app_16x16_xpm[] = {
"16 16 3 1",
" 	c None",
".	c #323d4c",
"#	c #FFFFFF",
"                ",
"                ",
".....        .. ",
".####.      .#. ",
" .####.    .#.  ",
"  .####.  .#.   ",
"   .####..#.    ",
"    .###.#.     ",
"     .#.##.     ",
"    .#.####.    ",
"   .#. .####.   ",
"  .#.   .####.  ",
" .#.     .####. ",
".#.       .####.",
"..         .....",
"                "};
