/* XPM */
static char * icewm_xpm[] = {
"48 20 166 2",
"  	c None",
". 	c #4F4F4F",
"+ 	c #343434",
"@ 	c #1A1A1A",
"# 	c #2E2E2E",
"$ 	c #B9B9B9",
"% 	c #EEEEEE",
"& 	c #000000",
"* 	c #848484",
"= 	c #D3D3D3",
"- 	c #9F9F9F",
"; 	c #404E55",
"> 	c #C0EAFF",
", 	c #2D2D2D",
"' 	c #353535",
") 	c #D4D4D4",
"! 	c #696969",
"~ 	c #2A3338",
"{ 	c #15191C",
"] 	c #5F5F5F",
"^ 	c #E0E0E0",
"/ 	c #AACFE2",
"( 	c #95B5C6",
"_ 	c #171717",
": 	c #1B1B1B",
"< 	c #4E4E4E",
"[ 	c #1E1E1E",
"} 	c #323232",
"| 	c #010101",
"1 	c #111111",
"2 	c #C8C8C8",
"3 	c #6A818D",
"4 	c #809BAA",
"5 	c #556771",
"6 	c #ECECEC",
"7 	c #060606",
"8 	c #BEBEBE",
"9 	c #9E9E9E",
"0 	c #6E6E6E",
"a 	c #E7E7E7",
"b 	c #EDEDED",
"c 	c #BBBBBB",
"d 	c #B1B1B1",
"e 	c #040404",
"f 	c #9D9D9D",
"g 	c #8E8E8E",
"h 	c #A5A5A5",
"i 	c #7F7F7F",
"j 	c #1F1F1F",
"k 	c #303030",
"l 	c #020202",
"m 	c #E3E3E3",
"n 	c #E8E8E8",
"o 	c #C3C3C3",
"p 	c #9ABACB",
"q 	c #6F8692",
"r 	c #666666",
"s 	c #D1D1D1",
"t 	c #747474",
"u 	c #A1A1A1",
"v 	c #6D6D6D",
"w 	c #565656",
"x 	c #7A7A7A",
"y 	c #585858",
"z 	c #0F0F0F",
"A 	c #1C1C1C",
"B 	c #D8D8D8",
"C 	c #E5E5E5",
"D 	c #62747E",
"E 	c #232323",
"F 	c #313131",
"G 	c #717171",
"H 	c #898989",
"I 	c #AAAAAA",
"J 	c #9B9B9B",
"K 	c #797979",
"L 	c #676767",
"M 	c #6F6F6F",
"N 	c #4D4D4D",
"O 	c #C0C0C0",
"P 	c #8F8F8F",
"Q 	c #CCCCCC",
"R 	c #0C0C0C",
"S 	c #828282",
"T 	c #D5D5D5",
"U 	c #606060",
"V 	c #A8A8A8",
"W 	c #7C7C7C",
"X 	c #B2B2B2",
"Y 	c #808080",
"Z 	c #7E7E7E",
"` 	c #646464",
" .	c #4C4C4C",
"..	c #5B5B5B",
"+.	c #A4A4A4",
"@.	c #A3A3A3",
"#.	c #EBEBEB",
"$.	c #272727",
"%.	c #393939",
"&.	c #929292",
"*.	c #989898",
"=.	c #656565",
"-.	c #C1C1C1",
";.	c #888888",
">.	c #5D5D5D",
",.	c #3B3B3B",
"'.	c #A7A7A7",
").	c #C4C4C4",
"!.	c #ADADAD",
"~.	c #AEAEAE",
"{.	c #4B4B4B",
"].	c #262626",
"^.	c #131313",
"/.	c #0D0D0D",
"(.	c #1D1D1D",
"_.	c #363636",
":.	c #6C6C6C",
"<.	c #707070",
"[.	c #ABABAB",
"}.	c #C6C6C6",
"|.	c #727272",
"1.	c #6A6A6A",
"2.	c #8B8B8B",
"3.	c #8D8D8D",
"4.	c #818181",
"5.	c #5A5A5A",
"6.	c #D2D2D2",
"7.	c #CFCFCF",
"8.	c #525252",
"9.	c #6B6B6B",
"0.	c #757575",
"a.	c #999999",
"b.	c #909090",
"c.	c #919191",
"d.	c #C9C9C9",
"e.	c #CDCDCD",
"f.	c #A2A2A2",
"g.	c #636363",
"h.	c #9A9A9A",
"i.	c #939393",
"j.	c #575757",
"k.	c #DDDDDD",
"l.	c #A6A6A6",
"m.	c #E9E9E9",
"n.	c #0B0B0B",
"o.	c #282828",
"p.	c #878787",
"q.	c #7B7B7B",
"r.	c #A9A9A9",
"s.	c #D7D7D7",
"t.	c #BFBFBF",
"u.	c #D6D6D6",
"v.	c #737373",
"w.	c #959595",
"x.	c #B7B7B7",
"y.	c #777777",
"z.	c #858585",
"A.	c #5E5E5E",
"B.	c #686868",
"C.	c #EAEAEA",
"D.	c #C7C7C7",
"E.	c #BDBDBD",
"F.	c #C5C5C5",
"G.	c #979797",
"H.	c #4A4A4A",
"I.	c #AFAFAF",
"                                                                                                ",
"                                                                                                ",
"                                                                                                ",
"                                                                                                ",
"                                      . . +   @ . . +   @ . .   . . . +   @ . . .               ",
"                                    # $ % % & * % % = & - % % @ % % % - & . % % % .             ",
"          ; ;                       # - % % @ = % % % + $ % % & % % % % & - % % % .             ",
"        ; > > &                     , ' ) % ! % % % % ! % % - & % % $ % @ $ = % % .         & & ",
"        ; > > &   & ; ; ~ & # & { ; ; { & - % % % - % % % % ! & % % - % . % - % % .       & ] ^ ",
"        ; > > & { / > > > ( _ ; > > > > ; : % % - . % % % % . & % % < [ } | & % % .       1 ^ 2 ",
"        ; > > & 3 > 4 & 3 5 { / > 5 5 > / : % % ! @ % % % % & & % 6 7 8 9 0 : a b .     + c ^ d ",
"        ; > > & 4 > ;   _ _ & > > 4 4 4 4 : % % @ & $ % % $ & & b e f g h i . j k l   & f m n o ",
"        ; > > & 5 > 4 ; / p { ( > 5 5 4 q . % = & # * % % - # & | r s t u u v w x y z A B = C n ",
"        ; > > & & 3 > > / D # { ( > > ( { E . + _   @ . . @ | F G H I J K - H L M M N x O P Q a ",
"          & &     & & & & _   # & & & &                 R A S T h U V W K X Y Z `  ...O +.d @.#.",
"                                                  7 $.%.w $ a &.+.*.Z =.- -.;.r >.,.'.'.).!.~.n ",
"                        {.].# A ^.l /.: (.1 (., _.:.<.H [.% }.;.&.|.g 1.).2.3.4.5.;.6.J 3.!.7.).",
"                      _ 8.9.0.W i 4.2.P &.a.b.b.P c.d.e.).6.Y f.d g...h ;.h.i.1.j.k.l.V ` - m.).",
"              | n.o. .` :.t Z p.g P 9 l.X '.q.9 r.T s.t.u.H K v.q.:.w.x.P I 3.y.3.T z.;. .c B s ",
"            | t A.g.B.0 t K Z i q.Y &.2.z.9 6.C.s D.E.u.a.Z Y g.B.[.F.4.d.'.- G.D.x M H.N D.).I."};
