/* XPM */
static char * icewm_xpm[] = {
"48 20 8 1",
" 	c None",
".	c #0E0E0E",
"+	c #333333",
"@	c #666666",
"#	c #FFFFFF",
"$	c #999999",
"%	c #CCCCCC",
"&	c #BEE6FA",
"                                                ",
"                                                ",
"                                                ",
"                                                ",
"                   ..+ .... ... ..@   @..+      ",
"                  +###.$##%.%##.##%@ @%##.      ",
"     ..           +###+####@%##.###%@%###.      ",
"    .&&.          +%##$####$##$+####%####.    ..",
"    .&&. ...+   ....#####%####$.##+%#%+##.   .@#",
"    .&&..&&&&. .&&&&@###$$####++##+++.+##.   .##",
"    .&&.&&..&&.&&..&&.##$.####..##+%$@+##.  +%#%",
"    .&&.&&. ..+&&&&&&@##..###%..#.$$$$@.+. .%##%",
"    .&&.&&..&&.&&....+##.+$##%+..@#@$$$@$+..%###",
"    .&&..&&&&. .&&&&. @+. ..+..+@$%$$$$@@$@$#$##",
"     ..  ....   ....        ..$#%@%$$%$$@@@%$%$#",
"                         .++@##$$$$@$#$$@+$$%%%#",
"            @++.....+..++@@$%#%$$@$@%$$$@$#$$%#%",
"           .@@$$$$$$$$$$$%##%#$$%$@%$$$@@#%%@$#%",
"       ..+@@@$$$$$$%%$$$%%#%#$$$$@$%$%$$$#$$@###",
"      .@@@@@@$$$$$$$$$%###%#$$$@@%#$#%$$#$@@@%%%"};
