/* XPM */
static char * icewm_xpm[] = {
"48 20 7 1",
" 	c None",
".	c #020202",
"+	c #9EA5AB",
"@	c #3C4854",
"#	c #E6E8EA",
"$	c #727A82",
"%	c #505A66",
"................................................",
".%%%%%%%%%%%%@@@@@@@@@@@@@@@@%%%%%%%%%%%%%%%$$$.",
".%%%%%%%%%%%%@@@@@@@@@@@@@@@@%%%%%%%%%%%%%%%%%$.",
".%%%%%%%%%%%@@@@@@@@@@@@@@@@@%%%%%%%%%%%%%%%%%%.",
".%%%%%%%%%%@@@@@@@@@@@@@@@@@@%%%%%%%%%%%%%%%%%%.",
".%%%%%%%%%@@@@@@@@@@@@@@@@@@@@%%%%%%%%%%%%%%%%%.",
".%%%%$#$@@@@@@@@@@@@@@@@+%@@$+%%%#$##+%%%%##+%%.",
".%%%@$#$@@@@@@@@@@@@@@@@$$@@++%%++%#++%%%+##+%%.",
".%@@@$#$@@%++$@@@@%$$@@@%+@@++%%++%++#%%%###+%%.",
".@@@@$#$@+#++#+@@++$$+%@@+%%++$%+$%++++%%#+#+%%.",
".@@@@$#$%#+@@%+%%+%@@%+@@++$$++%+%%+$+#%+#+#+%%.",
".@@@@$#$$#%@@@@@$++++++@@$+$%%+++%%++%#$++$#+%%.",
".@@@@$#$%#$@@@%@$+%%@@@@@@++%@++$%%++%++#$$#+%%.",
".@@@@$#$@+#$%++@@++%%++@@@++@@++%%%++%$##%$#$@@.",
".@@@@$#$@@+##+%@@@+++%@@@@$$@@$+%%%#+%%#+@$#$@@.",
".@@@@@@@@@@@@@@@@@@@@@@@@@@@@@@@%%%%%%%%@@@@@@@.",
".@@@@@@@@@@@@@@@@@@@@@@@@@@@@@@@%%%%%%%@@@@@@@@.",
".@@@@@@@@@@@@@@@@@@@@@@@@@@@@@@@%%%%%%@@@@@@@@@.",
".@@@@@@@@@@@@@@@@@@@@@@@@@@@@@@@%%%%%%@@@@@@@@@.",
"................................................"};
