/* XPM */
static char * hideA_xpm[] = {
"16 34 24 1",
" 	c None",
".	c #838789",
"+	c #9B9BA2",
"@	c #4D4E51",
"#	c #AEAEB2",
"$	c #5A5E5A",
"%	c #C7C2C5",
"&	c #62666E",
"*	c #D6D5D9",
"=	c #727272",
"-	c #7A7E85",
";	c #EEEAEE",
">	c #FEFEFE",
",	c #6A6E76",
"'	c #323636",
")	c #3A363A",
"!	c #324062",
"~	c #3F4D6E",
"{	c #4E5E7E",
"]	c #627296",
"^	c #7282A6",
"/	c #7286AA",
"(	c #5A668A",
"_	c #22325A",
"................",
"+@@@@@@@@@@@@@@@",
"#@$$$$$$$$$$$$$@",
"%$&&&&&&&&&&&&&$",
"*=-------------=",
";...............",
">+++++>>+>>++++.",
";+++++>+++>+++++",
"*#+++++++++++++#",
"%%....>...>....%",
"#%---->>->>----%",
"+*,,,,,,,,,,,,,*",
".%&&&&&&&&&&&&&%",
"=#$$$$$$$$$$$$$#",
"$-@@@@@@@@@@@@@-",
"@$&.+++++++++.&$",
"''))))))))))))))",
"................",
"+@@@@@@@@@@@@@@@",
"#@!!!!!!!!!!!!!@",
"%$~~~~~~~~~~~~~$",
"*={{{{{{{{{{{{{=",
";.]]]]]]]]]]]]].",
">+^^^^>>^>>^^^^.",
";+^^^^>^^^>^^^^+",
"*#/////////////#",
"%%]]]]>]]]>]]]]%",
"#%((((>>(>>((((%",
"+*{{{{{{{{{{{{{*",
".%~~~~~~~~~~~~~%",
"=#!!!!!!!!!!!!!#",
"$-_____________-",
"@$&.+++++++++.&$",
"'')''')'))))'))'"};
