/* XPM */
static char * maximizeA_xpm[] = {
"16 34 25 1",
" 	c None",
".	c #808486",
"+	c #8C8D95",
"@	c #9E9898",
"#	c #4A4A4D",
"$	c #AEAEAE",
"%	c #55585D",
"&	c #C5C0C4",
"*	c #61636E",
"=	c #697084",
"-	c #D4D3D6",
";	c #717378",
">	c #EEEAEE",
",	c #FEFEFE",
"'	c #9A9EAE",
")	c #A9ADBA",
"!	c #7385AA",
"~	c #62749A",
"{	c #465678",
"]	c #3C4A72",
"^	c #A19DA1",
"/	c #353638",
"(	c #324063",
"_	c #556283",
":	c #24325A",
".+.+.+..+.+.+.+.",
"@###############",
"$#%%%%%%%%%%%%%#",
"&**=*=**=*=*=*=*",
"-;;;;;;;;;;;;.;;",
">.++,,,,,,,,,+..",
",@+',,,,,,,,,@@+",
">@'',''''''',''@",
"-)'',''''''','')",
"&&++,+++++++,++&",
")&.!,;!.!~.!,;!&",
"@-*;,,,,,,,,,=;-",
".-*************&",
";){%{%{%{%{%{%%$",
"%;###########]#.",
"#%=.@^@^@@'@@.*%",
"////////////////",
".+...+..+...+.+.",
"@###############",
"$#(((((((((((/(%",
"&*]]]{]]]{]]]{]*",
"-;*____________;",
">.~~,,,,,,,,,==.",
",+!!,,,,,,,,,!!+",
">@!!,!!!!!!!,!!@",
"-)!!,!!!!!!!,!!$",
"&&;~,~~~!~~~,=~&",
"$&_=,_=___=_,__&",
"^-{{,,,,,,,,,{_-",
"+&]]]]]]]]]]]]]&",
";)((((:(((:(((/$",
"%.:::::::::::::;",
"#%*.@@@@^@@@@.*%",
"////////////////"};
