/* XPM */
static char * menuButtonA_xpm[] = {
"20 34 25 1",
" 	c None",
".	c #838789",
"+	c #9B9BA2",
"@	c #4D4E51",
"#	c #AEAEB2",
"$	c #C7C2C5",
"%	c #62666E",
"&	c #D6D5D9",
"*	c #727272",
"=	c #EEEAEE",
"-	c #FEFEFE",
";	c #7A7E85",
">	c #6A6E76",
",	c #5A5E5A",
"'	c #323636",
")	c #3A363A",
"!	c #324062",
"~	c #3F4D6E",
"{	c #4E5E7E",
"]	c #627296",
"^	c #7282A6",
"/	c #7286AA",
"(	c #677695",
"_	c #5A668A",
":	c #22325A",
"....................",
"+@@@@@@@@@@@@@@@@@@+",
"#@@@@@@@@@@@@@@@@@@#",
"$%%%%%%%%%%%%%%%%%%$",
"&******************&",
"=..................=",
"-++++++++++++++++++-",
"=++++++++++++++++++=",
"&#++++++++++++++++#&",
"$$................$$",
"#$;;;;;;;;;;;;;;;;$#",
"+&>>>>>>>>>>>>>>>>&+",
".$%%%%%%%%%%%%%%%%$.",
"*#@@@@@@@@@@@@@@@@#*",
",;@@@@@@@@@@@@@@@@;,",
"@,>.++++++++++++.>,@",
"''))))))))))))'))))'",
"....................",
"+@@@@@@@@@@@@@@@@@@+",
"#@!!!!!!!!!!!!!!!!@#",
"$%~~~~~~~~~~~~~~~~%$",
"&*{{{{{{{{{{{{{{{{*&",
"=.]]]]]]]]]]]]]]]].=",
"-+^^^^^^^^^^^^^^^^.-",
"=+////////////////+=",
"&#////////////////#&",
"$$(((((((((((((((($$",
"#$________________$#",
"+&{{{{{{{{{{{{{{{{&+",
".$~~~~~~~~~~~~~~~~$.",
"*#!!!!!!!!!!!!!!!!#*",
",;::::::::::::::::;,",
"@,>.++++++++++++.>,@",
"'')')')))))')'''))''"};
