/* XPM */
static char * titleAP_xpm[] = {
"10 17 25 1",
" 	c None",
".	c #4D4E51",
"+	c #838789",
"@	c #9B9BA2",
"#	c #62666E",
"$	c #AEAEB2",
"%	c #324062",
"&	c #6A6E76",
"*	c #C7C2C5",
"=	c #3F4D6E",
"-	c #727272",
";	c #D6D5D9",
">	c #4E5E7E",
",	c #7A7E85",
"'	c #EEEAEE",
")	c #627296",
"!	c #FEFEFE",
"~	c #7282A6",
"{	c #7286AA",
"]	c #677695",
"^	c #5A668A",
"/	c #3A363A",
"(	c #5A5E5A",
"_	c #22325A",
":	c #323636",
".+++++++++",
".@........",
"#$.%%%%%%%",
"&*#=======",
"-;->>>>>>>",
",'+)))))))",
"+!@~~~~~~~",
",'@{{{{{{{",
"-;${{{{{{{",
"&**]]]]]]]",
"#$*^^^^^^^",
".@;>>>>>>>",
".+*=======",
".-$%%%%%%%",
"/(,_______",
":.(&+@@@@@",
"_/:/:/:///"};
