/* XPM */
static char * titleIJ_xpm[] = {
"3 17 15 1",
" 	c None",
".	c #838789",
"+	c #4D4E51",
"@	c #9B9BA2",
"#	c #5A5E5A",
"$	c #AEAEB2",
"%	c #C7C2C5",
"&	c #62666E",
"*	c #D6D5D9",
"=	c #727272",
"-	c #EEEAEE",
";	c #7A7E85",
">	c #FEFEFE",
",	c #3A363A",
"'	c #323636",
"..+",
"@@#",
"$$#",
"%%&",
"**=",
"--;",
">>.",
"--;",
"**=",
"%%&",
"$$#",
"@@#",
"..+",
"==+",
"##,",
"++'",
"','"};
