/* XPM */
static char * titleAR_xpm[] = {
"1 17 10 1",
" 	c None",
".	c #4D4E51",
"+	c #62666E",
"@	c #6A6E76",
"#	c #727272",
"$	c #7A7E85",
"%	c #838789",
"&	c #3A363A",
"*	c #323636",
"=	c #22325A",
".",
".",
"+",
"@",
"#",
"$",
"%",
"$",
"#",
"@",
"+",
".",
".",
".",
"&",
"*",
"="};
