/* XPM */
static char * titleIM_xpm[] = {
"14 17 15 1",
" 	c None",
".	c #838789",
"+	c #4D4E51",
"@	c #9B9BA2",
"#	c #5A5E5A",
"$	c #3A363A",
"%	c #AEAEB2",
"&	c #C7C2C5",
"*	c #62666E",
"=	c #727272",
"-	c #D6D5D9",
";	c #EEEAEE",
">	c #7A7E85",
",	c #FEFEFE",
"'	c #323636",
".............+",
"++++++++++++@#",
"$$$$$$$$$$$+%#",
"+++++++++++#&*",
"###########=-=",
"===========.;>",
">>>>>>>>>>>.,.",
">>>>>>>>>>>@;>",
"...........%-=",
"===========&&*",
"***********&%#",
"###########-@#",
"+++++++++++&.+",
"$$$$$$$$$$$%=+",
"'''''''''''>#$",
"@@@@@@@@@.*#+'",
"$$$'$$$$'$$'$'"};
