/* XPM */
static char * titleAT_xpm[] = {
"1 17 14 1",
" 	c None",
".	c #838789",
"+	c #4D4E51",
"@	c #324062",
"#	c #3F4D6E",
"$	c #4E5E7E",
"%	c #627296",
"&	c #7282A6",
"*	c #7286AA",
"=	c #677695",
"-	c #5A668A",
";	c #22325A",
">	c #9B9BA2",
",	c #3A363A",
".",
"+",
"@",
"#",
"$",
"%",
"&",
"*",
"*",
"=",
"-",
"$",
"#",
"@",
";",
">",
","};
