/* XPM */
static char * titleIQ_xpm[] = {
"3 17 13 1",
" 	c None",
".	c #838789",
"+	c #4D4E51",
"@	c #9B9BA2",
"#	c #AEAEB2",
"$	c #5A5E5A",
"%	c #C7C2C5",
"&	c #727272",
"*	c #D6D5D9",
"=	c #EEEAEE",
"-	c #FEFEFE",
";	c #323636",
">	c #3A363A",
".+.",
"@+@",
"#$#",
"%&%",
"*&*",
"=&=",
"-@-",
"=&=",
"*&*",
"%&%",
"#$#",
"@+@",
".+.",
"&+&",
"$;$",
"+>+",
";;;"};
