/* XPM */
static char * titleIT_xpm[] = {
"1 17 10 1",
" 	c None",
".	c #838789",
"+	c #4D4E51",
"@	c #3A363A",
"#	c #5A5E5A",
"$	c #727272",
"%	c #7A7E85",
"&	c #62666E",
"*	c #323636",
"=	c #9B9BA2",
".",
"+",
"@",
"+",
"#",
"$",
"%",
"%",
".",
"$",
"&",
"#",
"+",
"@",
"*",
"=",
"*"};
