/* XPM */
static char * titleAJ_xpm[] = {
"3 17 17 1",
" 	c None",
".	c #838789",
"+	c #4D4E51",
"@	c #9B9BA2",
"#	c #AEAEB2",
"$	c #62666E",
"%	c #C7C2C5",
"&	c #6A6E76",
"*	c #D6D5D9",
"=	c #727272",
"-	c #EEEAEE",
";	c #7A7E85",
">	c #FEFEFE",
",	c #5A5E5A",
"'	c #3A363A",
")	c #323636",
"!	c #22325A",
"..+",
"@@+",
"##$",
"%%&",
"**=",
"--;",
">>.",
"--;",
"**=",
"%%&",
"##$",
"@@+",
"..+",
"==+",
",,'",
"++)",
")'!"};
