/* XPM */
static char * titleIP_xpm[] = {
"10 17 15 1",
" 	c None",
".	c #4D4E51",
"+	c #838789",
"@	c #5A5E5A",
"#	c #9B9BA2",
"$	c #AEAEB2",
"%	c #3A363A",
"&	c #62666E",
"*	c #C7C2C5",
"=	c #727272",
"-	c #D6D5D9",
";	c #7A7E85",
">	c #EEEAEE",
",	c #FEFEFE",
"'	c #323636",
".+++++++++",
"@#........",
"@$.%%%%%%%",
"&*@.......",
"=-=@@@@@@@",
";>+=======",
"+,#;;;;;;;",
";>#;;;;;;;",
"=-$+++++++",
"&**=======",
"@$*&&&&&&&",
"@#-@@@@@@@",
".+*.......",
".=$%%%%%%%",
"%@;'''''''",
"'.@&+#####",
"'%'%'''%%%"};
