/* XPM */
static char * titleIR_xpm[] = {
"1 17 9 1",
" 	c None",
".	c #4D4E51",
"+	c #5A5E5A",
"@	c #62666E",
"#	c #727272",
"$	c #7A7E85",
"%	c #838789",
"&	c #3A363A",
"*	c #323636",
".",
"+",
"+",
"@",
"#",
"$",
"%",
"$",
"#",
"@",
"+",
"+",
".",
".",
"&",
"*",
"*"};
