/* XPM */
static char * titleAM_xpm[] = {
"14 17 25 1",
" 	c None",
".	c #838789",
"+	c #4D4E51",
"@	c #9B9BA2",
"#	c #324062",
"$	c #AEAEB2",
"%	c #62666E",
"&	c #3F4D6E",
"*	c #C7C2C5",
"=	c #6A6E76",
"-	c #4E5E7E",
";	c #727272",
">	c #D6D5D9",
",	c #627296",
"'	c #EEEAEE",
")	c #7A7E85",
"!	c #7282A6",
"~	c #FEFEFE",
"{	c #7286AA",
"]	c #677695",
"^	c #5A668A",
"/	c #22325A",
"(	c #5A5E5A",
"_	c #3A363A",
":	c #323636",
".............+",
"++++++++++++@+",
"###########+$%",
"&&&&&&&&&&&%*=",
"-----------;>;",
",,,,,,,,,,,.')",
"!!!!!!!!!!!.~.",
"{{{{{{{{{{{@')",
"{{{{{{{{{{{$>;",
"]]]]]]]]]]]**=",
"^^^^^^^^^^^*$%",
"----------->@+",
"&&&&&&&&&&&*.+",
"###########$;+",
"///////////)(_",
"@@@@@@@@@.=(+:",
"___:____:__:_/"};
