/* XPM */
static char * titleAB_xpm[] = {
"1 17 12 1",
" 	c None",
".	c #838789",
"+	c #9B9BA2",
"@	c #AEAEB2",
"#	c #C7C2C5",
"$	c #D6D5D9",
"%	c #EEEAEE",
"&	c #FEFEFE",
"*	c #727272",
"=	c #5A5E5A",
"-	c #4D4E51",
";	c #323636",
".",
"+",
"@",
"#",
"$",
"%",
"&",
"%",
"$",
"#",
"@",
"+",
".",
"*",
"=",
"-",
";"};
